<?xml version="1.0" encoding="UTF-8"?>
<!DOCTYPE svg PUBLIC "-//W3C//DTD SVG 1.1//EN" "http://www.w3.org/Graphics/SVG/1.1/DTD/svg11.dtd">
<!-- Creator: CorelDRAW 2021 (64-Bit) -->
<svg xmlns="http://www.w3.org/2000/svg" xml:space="preserve" width="6.31104in" height="1.21901in" version="1.1" style="shape-rendering:geometricPrecision; text-rendering:geometricPrecision; image-rendering:optimizeQuality; fill-rule:evenodd; clip-rule:evenodd"
viewBox="0 0 6226.48 1202.68"
 xmlns:xlink="http://www.w3.org/1999/xlink"
 xmlns:xodm="http://www.corel.com/coreldraw/odm/2003">
 <defs>
  <style type="text/css">
   <![CDATA[
    .fil0 {fill:white;fill-rule:nonzero}
   ]]>
  </style>
 </defs>
 <g id="Layer_x0020_1">
  <metadata id="CorelCorpID_0Corel-Layer"/>
  <g id="_2076829030032">
   <g>
    <path class="fil0" d="M80.49 1171.23c0,17.37 -14.08,31.45 -31.44,31.45 -17.37,0 -31.44,-14.08 -31.44,-31.45l0 -885.95c0,-17.37 14.08,-31.44 31.44,-31.44 11.31,0 21.23,5.97 26.77,14.94l624.97 884.4c9.97,14.18 6.56,33.75 -7.61,43.73 -14.18,9.97 -33.75,6.56 -43.73,-7.61l-568.95 -805.13 0 787.07z"/>
    <path class="fil0" d="M5.9 49.63c-10.11,-14.04 -6.92,-33.62 7.12,-43.73 14.04,-10.1 33.62,-6.91 43.73,7.12l815.07 1134.01c10.11,14.04 6.92,33.62 -7.12,43.73 -14.04,10.1 -33.62,6.91 -43.73,-7.12l-815.07 -1134.01z"/>
    <path class="fil0" d="M616.58 828.5c-10.11,14.04 -29.69,17.23 -43.73,7.13 -14.04,-10.11 -17.23,-29.69 -7.12,-43.73l550.56 -767.07c10.1,-14.04 29.68,-17.23 43.73,-7.12 8.49,6.12 13.02,15.7 13.02,25.43l0.12 0 0 157.78c0,17.37 -14.08,31.44 -31.45,31.44 -17.36,0 -31.44,-14.08 -31.44,-31.44l0 -60.25 -493.68 687.84zm493.68 178.38c0,-17.36 14.08,-31.44 31.44,-31.44 17.37,0 31.45,14.08 31.45,31.44l0 164.35c0,17.37 -14.08,31.45 -31.45,31.45 -17.36,0 -31.44,-14.08 -31.44,-31.45l0 -164.35z"/>
    <path class="fil0" d="M1287.79 405.41c-0.7,0 -1.41,-0.01 -2.14,-0.03 -1.93,-0.09 -3.81,-0.12 -5.67,-0.12 -32.42,0 -58.74,12.52 -74.12,35.24 -16.21,23.96 -18.21,55.89 -5.5,87.6 16.32,40.72 46.99,63.91 76.65,86.33 1.48,1.12 3.08,2.32 4.77,3.57 23.2,17.33 36.22,29.54 38.77,36.33 -1.08,0.35 -2.63,0.71 -4.69,0.95 -26.36,3.08 -48.09,16.26 -59.63,36.16 -10.88,18.76 -11.82,41.92 -2.57,63.55 18.29,42.78 64.03,64.96 106.37,81.01 42.84,16.23 45.4,17.2 59.9,50.38 21.03,48.12 51.52,76.19 90.81,83.72l0 213.58 44.97 0 0 -213.6c39.27,-7.55 69.74,-35.61 90.76,-83.71 14.5,-33.18 17.06,-34.15 59.9,-50.38 42.34,-16.05 88.08,-38.23 106.37,-81.01 9.24,-21.63 8.3,-44.79 -2.57,-63.55 -11.54,-19.91 -33.27,-33.08 -59.63,-36.16 -2.05,-0.24 -3.6,-0.61 -4.69,-0.96 2.56,-6.81 15.6,-19.03 38.81,-36.36 1.67,-1.25 3.26,-2.43 4.73,-3.55 29.66,-22.43 60.34,-45.62 76.65,-86.33 12.71,-31.72 10.76,-63.57 -5.34,-87.36 -15.46,-22.85 -42.14,-35.44 -75.13,-35.44 -1.58,0 -3.19,0.03 -4.66,0.08 -0.77,0.02 -1.53,0.03 -2.26,0.03 -11.56,0 -14.4,-2.65 -14.42,-2.68 -0.03,-0.05 -3.17,-5.23 3.64,-25.71l0.09 -0.29c6.56,-20.7 14.73,-46.47 18.99,-70.39 5.08,-28.58 -1.29,-55.26 -17.93,-75.12 -15.98,-19.07 -39.62,-29.57 -66.57,-29.57 -12.77,0 -26.02,2.37 -39.39,7.04 -7.31,2.56 -12.88,3.85 -16.55,3.85 -2.3,0 -4.9,0 -13.86,-14.72 -14.03,-23.05 -26.09,-38.15 -39.11,-48.95 -17.75,-14.74 -37.48,-21.91 -60.33,-21.91 -22.85,0 -42.58,7.17 -60.32,21.91 -13.03,10.83 -25.1,25.92 -39.11,48.96 -8.94,14.69 -11.55,14.69 -13.86,14.69 -3.67,0 -9.24,-1.29 -16.54,-3.83l-0.29 -0.1c-13.36,-4.44 -26.54,-6.69 -39.16,-6.69 -27.21,0 -50.94,10.43 -66.81,29.38 -16.47,19.66 -22.73,46.32 -17.63,75.05 4.22,23.78 12.35,49.45 18.88,70.08l0.14 0.43c6.7,20.75 3.71,25.94 3.69,25.97 -0.03,0.03 -2.91,2.6 -14.39,2.6l0 0zm50.72 23.88c15,-20.59 8.76,-47.68 2.8,-66.14l-0.1 -0.31c-6.13,-19.37 -13.77,-43.49 -17.48,-64.37 -2.74,-15.42 0.04,-29.02 7.82,-38.31 7.28,-8.69 18.47,-13.29 32.34,-13.29 7.76,0 16.12,1.46 24.85,4.35 12.33,4.27 22.23,6.27 31.15,6.27 30.19,0 44.55,-23.6 52.27,-36.28 11.32,-18.6 20.4,-30.24 29.44,-37.75 9.73,-8.08 19.18,-11.53 31.59,-11.53 12.42,0 21.87,3.45 31.61,11.53 9.03,7.49 18.1,19.13 29.43,37.74 7.72,12.69 22.09,36.3 52.27,36.3 8.98,0 18.96,-2.02 31.39,-6.37 8.59,-3 16.85,-4.52 24.55,-4.52 13.61,0 24.71,4.66 32.1,13.48 7.95,9.49 10.84,23.12 8.13,38.37 -3.73,20.97 -11.37,45.11 -17.53,64.54 -3.57,10.76 -14.11,42.85 2.63,66.05 10.22,14.15 27.33,21.33 50.89,21.33 1.16,0 2.34,-0.02 3.7,-0.06 1.09,-0.04 2.16,-0.06 3.22,-0.06 12.45,0 29.12,2.72 37.89,15.67 7.49,11.07 7.8,28.06 0.84,45.44 -11.66,29.11 -36.13,47.61 -62.04,67.19 -1.4,1.06 -2.91,2.19 -4.51,3.38 -27.74,20.71 -52.95,41.44 -56.79,67.29 -1.79,12.06 0.89,23.18 7.75,32.14 7.87,10.27 20.53,16.7 36.61,18.58 12.31,1.44 21.52,6.42 25.94,14.05 3.74,6.46 3.79,14.75 0.12,23.33 -11.72,27.43 -49.42,44.67 -80.95,56.63 -48.98,18.56 -64.04,26.06 -85.17,74.42 -15.33,35.08 -33.35,49.51 -49.56,55.25l0 -171.04 101.46 -106.81 -32.61 -30.97 -68.85 72.49 0 -138.32 101.46 -106.81 -32.61 -30.97 -68.85 72.49 0 -123.33 -44.97 0 0 123.33 -68.85 -72.48 -32.6 30.97 101.45 106.81 0 138.31 -68.85 -72.49 -32.6 30.97 101.45 106.81 0 171.06c-16.22,-5.72 -34.26,-20.14 -49.61,-55.27 -21.14,-48.37 -36.2,-55.87 -85.17,-74.42 -31.53,-11.95 -69.23,-29.19 -80.96,-56.62 -3.67,-8.58 -3.62,-16.87 0.12,-23.32 4.42,-7.62 13.63,-12.62 25.94,-14.05 16.07,-1.87 28.72,-8.29 36.59,-18.56 6.88,-8.97 9.57,-20.09 7.78,-32.16 -3.84,-25.83 -29.03,-46.55 -56.75,-67.25 -1.61,-1.2 -3.14,-2.35 -4.56,-3.42 -25.9,-19.58 -50.36,-38.07 -62.03,-67.19 -6.97,-17.37 -6.59,-34.45 1,-45.67 8.65,-12.79 24.82,-15.47 36.87,-15.47 1.27,0 2.56,0.03 3.88,0.09l0.35 0.01c1.22,0.03 2.42,0.05 3.58,0.05 23.47,0 40.54,-7.09 50.72,-21.09l0 0z"/>
    <path class="fil0" d="M1533.21 10.57c163.84,0 312.17,66.41 419.55,173.79 107.37,107.37 173.79,255.71 173.79,419.55 0,163.84 -66.41,312.17 -173.79,419.55 -107.37,107.37 -255.7,173.78 -419.55,173.78 -163.84,0 -312.17,-66.41 -419.54,-173.78 -107.37,-107.37 -173.79,-255.71 -173.79,-419.55 0,-163.84 66.42,-312.17 173.79,-419.55 107.37,-107.37 255.7,-173.79 419.54,-173.79zm375.08 218.25c-95.99,-95.99 -228.6,-155.36 -375.08,-155.36 -146.48,0 -279.09,59.37 -375.08,155.36 -95.99,95.99 -155.36,228.6 -155.36,375.08 0,146.48 59.37,279.09 155.36,375.08 95.99,95.99 228.6,155.36 375.08,155.36 146.48,0 279.1,-59.37 375.08,-155.36 95.99,-95.99 155.36,-228.6 155.36,-375.08 0,-146.48 -59.37,-279.09 -155.36,-375.08z"/>
   </g>
   <g>
    <path class="fil0" d="M2526.84 1053.01c90.53,0 132,-44.51 132,-96.6 0,-128.97 -217.98,-70.3 -217.98,-167.41 0,-35.4 28.83,-64.23 93.57,-64.23 31.36,0 66.76,9.61 97.11,29.33l12.64 -29.84c-28.32,-19.72 -69.8,-31.36 -109.75,-31.36 -90.03,0 -130.49,45.01 -130.49,97.11 0,130.99 217.98,71.31 217.98,168.42 0,34.9 -28.83,62.72 -95.08,62.72 -46.53,0 -91.54,-18.21 -116.83,-42.99l-14.67 28.83c26.3,27.31 78.39,46.02 131.5,46.02z"/>
    <path id="_1" class="fil0" d="M2982.58 1053.01c106.21,0 185.62,-76.37 185.62,-180.05 0,-103.68 -79.41,-180.05 -185.62,-180.05 -107.22,0 -186.12,76.88 -186.12,180.05 0,103.18 78.9,180.05 186.12,180.05zm0 -33.38c-85.47,0 -149.2,-62.21 -149.2,-146.67 0,-84.46 63.73,-146.67 149.2,-146.67 84.97,0 148.19,62.21 148.19,146.67 0,84.46 -63.22,146.67 -148.19,146.67z"/>
    <polygon id="_2" class="fil0" points="3339.71,1049.98 3575.39,1049.98 3575.39,1017.61 3377.13,1017.61 3377.13,695.94 3339.71,695.94 "/>
    <polygon id="_3" class="fil0" points="3725.15,1049.98 3762.57,1049.98 3762.57,695.94 3725.15,695.94 "/>
    <path id="_4" class="fil0" d="M4119.19 1053.01c52.09,0 98.63,-17.7 129.98,-52.09l-23.77 -23.77c-28.83,29.84 -64.23,42.49 -104.69,42.49 -85.48,0 -149.71,-62.72 -149.71,-146.67 0,-83.95 64.23,-146.67 149.71,-146.67 40.46,0 75.86,12.64 104.69,41.98l23.77 -23.77c-31.35,-34.39 -77.89,-51.59 -129.47,-51.59 -106.72,0 -185.61,76.37 -185.61,180.05 0,103.68 78.9,180.05 185.11,180.05z"/>
    <polygon id="_5" class="fil0" points="4416.63,1049.98 4454.05,1049.98 4454.05,695.94 4416.63,695.94 "/>
    <polygon id="_6" class="fil0" points="4725.7,1049.98 4763.12,1049.98 4763.12,728.31 4887.54,728.31 4887.54,695.94 4601.28,695.94 4601.28,728.31 4725.7,728.31 "/>
    <path id="_7" class="fil0" d="M5184.47 1053.01c106.21,0 185.62,-76.37 185.62,-180.05 0,-103.68 -79.41,-180.05 -185.62,-180.05 -107.22,0 -186.12,76.88 -186.12,180.05 0,103.18 78.9,180.05 186.12,180.05zm0 -33.38c-85.47,0 -149.2,-62.21 -149.2,-146.67 0,-84.46 63.73,-146.67 149.2,-146.67 84.97,0 148.19,62.21 148.19,146.67 0,84.46 -63.22,146.67 -148.19,146.67z"/>
    <path id="_8" class="fil0" d="M5824.31 1049.98l-86.49 -121.38c51.59,-16.69 80.92,-55.63 80.92,-111.27 0,-75.86 -54.62,-121.38 -144.65,-121.38l-132.51 0 0 354.03 37.42 0 0 -112.28 95.08 0c10.11,0 19.22,-0.5 28.32,-1.52l80.92 113.8 40.97 0zm-151.22 -144.14l-94.07 0 0 -177.52 94.07 0c70.81,0 108.23,32.37 108.23,89.01 0,55.63 -37.42,88.51 -108.23,88.51z"/>
    <path id="_9" class="fil0" d="M6092.41 1053.01c90.53,0 132,-44.51 132,-96.6 0,-128.97 -217.98,-70.3 -217.98,-167.41 0,-35.4 28.83,-64.23 93.57,-64.23 31.36,0 66.76,9.61 97.11,29.33l12.64 -29.84c-28.32,-19.72 -69.8,-31.36 -109.75,-31.36 -90.03,0 -130.49,45.01 -130.49,97.11 0,130.99 217.98,71.31 217.98,168.42 0,34.9 -28.83,62.72 -95.08,62.72 -46.53,0 -91.54,-18.21 -116.83,-42.99l-14.67 28.83c26.3,27.31 78.39,46.02 131.5,46.02z"/>
    <polygon class="fil0" points="2783.17,509.78 2782.16,155.75 2714.81,155.75 2584.41,375.76 2451.98,155.75 2384.21,155.75 2384.21,509.78 2461.09,509.78 2461.09,301.92 2564.68,472.36 2601.6,472.36 2705.71,297.36 2706.21,509.78 "/>
    <path id="_1_0" class="fil0" d="M3131.73 509.78l85.98 0 -158.3 -354.03 -80.92 0 -157.8 354.03 83.96 0 31.36 -75.86 164.37 0 31.36 75.86zm-169.43 -138.07l56.14 -135.54 56.14 135.54 -112.28 0z"/>
    <path id="_2_1" class="fil0" d="M3568.2 509.78l-79.4 -113.8c46.02,-19.72 72.83,-58.67 72.83,-111.77 0,-79.4 -59.18,-128.46 -153.75,-128.46l-153.25 0 0 354.03 81.93 0 0 -98.63 71.31 0 4.05 0 68.28 98.63 88 0zm-89.52 -225.57c0,38.44 -25.29,61.71 -75.36,61.71l-66.76 0 0 -123.41 66.76 0c50.07,0 75.36,22.76 75.36,61.7z"/>
    <polygon id="_3_2" class="fil0" points="3885.31,155.75 3776.07,408.63 3668.34,155.75 3579.83,155.75 3732.57,509.78 3813.49,509.78 3966.74,155.75 "/>
    <polygon id="_4_3" class="fil0" points="4077.5,444.03 4077.5,362.1 4241.87,362.1 4241.87,298.37 4077.5,298.37 4077.5,221.5 4263.62,221.5 4263.62,155.75 3996.07,155.75 3996.07,509.78 4270.19,509.78 4270.19,444.03 "/>
    <polygon id="_5_4" class="fil0" points="4335.44,509.78 4594.89,509.78 4594.89,443.02 4417.37,443.02 4417.37,155.75 4335.44,155.75 "/>
    <path id="_6_5" class="fil0" d="M4955.5 515.85c111.27,0 193.7,-77.38 193.7,-183.08 0,-105.7 -82.44,-183.08 -193.7,-183.08 -111.77,0 -193.71,77.89 -193.71,183.08 0,105.2 81.93,183.08 193.71,183.08zm0 -69.79c-63.22,0 -110.76,-46.02 -110.76,-113.29 0,-67.26 47.54,-113.29 110.76,-113.29 63.22,0 110.76,46.02 110.76,113.29 0,67.27 -47.54,113.29 -110.76,113.29z"/>
    <path id="_7_6" class="fil0" d="M5470.37 509.78l85.98 0 -158.3 -354.03 -80.92 0 -157.8 354.03 83.96 0 31.36 -75.86 164.37 0 31.36 75.86zm-169.43 -138.07l56.14 -135.54 56.14 135.54 -112.28 0z"/>
    <polygon id="_8_7" class="fil0" points="5835.53,509.78 5931.11,509.78 5775.84,313.54 5922.52,155.75 5831.48,155.75 5674.69,321.13 5674.69,155.75 5593.26,155.75 5593.26,509.78 5674.69,509.78 5674.69,420.26 5722.23,370.7 "/>
    <path id="_9_8" class="fil0" d="M6076.27 515.85c101.15,0 150.21,-50.57 150.21,-109.66 0,-129.98 -205.85,-84.88 -205.85,-150.21 0,-22.34 18.71,-40.54 67.27,-40.54 31.36,0 65.24,9.1 98.12,27.82l25.29 -62.21c-32.88,-20.74 -78.4,-31.36 -122.9,-31.36 -100.64,0 -149.2,50.07 -149.2,110.34 0,131.5 205.84,85.98 205.84,152.24 0,21.66 -19.72,37.84 -68.28,37.84 -42.48,0 -86.99,-15.17 -116.83,-36.83l-27.82 61.62c31.36,24.28 88,40.96 144.14,40.96z"/>
   </g>
  </g>
 </g>
</svg>
